<?xml version="1.0" encoding="iso-8859-1"?>
<!DOCTYPE svg PUBLIC "-//W3C//DTD SVG 1.1//EN" "http://www.w3.org/Graphics/SVG/1.1/DTD/svg11.dtd">
<svg version="1.1" id="Capa_1" xmlns="http://www.w3.org/2000/svg" xmlns:xlink="http://www.w3.org/1999/xlink" x="0px" y="0px" fill="#a09ecc" viewBox="0 0 137.842 137.842"
	 xml:space="preserve">
	<g>
		<path d="M118.235,50.437c0.037-5.893-4.725-10.726-10.689-10.768c-5.854,0-10.652,4.762-10.688,10.615
			c-0.017,2.858,1.075,5.553,3.079,7.583c1.577,1.598,3.57,2.613,5.732,2.995c0,0.045-0.026,0.077-0.026,0.122
			c-0.031,5.057-2.035,9.806-5.643,13.35c-3.602,3.554-8.422,5.647-13.432,5.468c-5.3-0.047-10.344-1.767-14.486-4.931
			c4.667-5.081,7.514-11.857,7.514-19.282c0-8.326-2.913-15.991-7.762-22.021c5.555-5.421,13.152-8.765,21.495-8.765
			c0.084,0,0.147-0.005,0.232,0c0.906,0,1.719-0.567,2.035-1.421c0.316-0.857,0.058-1.819-0.654-2.402L70.295,0.498
			c-0.794-0.665-1.959-0.665-2.764,0.005L43.084,20.948c-0.696,0.582-0.955,1.537-0.641,2.391c0.311,0.852,1.123,1.421,2.03,1.421
			c8.374,0,15.973,3.356,21.534,8.796c-4.833,5.972-7.75,13.558-7.802,21.821c-0.05,7.277,2.608,14.165,7.504,19.493
			c-4.071,3.091-9.147,4.941-14.644,4.941c-10.444,0-18.942-8.501-18.942-18.95c0-0.042-0.021-0.079-0.026-0.124
			c5.036-0.862,8.894-5.231,8.894-10.507c0-5.896-4.796-10.692-10.692-10.692c-5.898,0-10.692,4.797-10.692,10.692
			c0,5.055,3.53,9.271,8.245,10.383c-0.011,0.087-0.048,0.164-0.048,0.253c0,12.822,10.431,23.269,23.262,23.269
			c1.334,0,2.626-0.163,3.91-0.343c-1.835,2.7-2.917,5.964-2.917,9.461c0,8.326,13.36,39.72,14.882,43.278
			c0.34,0.786,1.123,1.309,1.988,1.309c0.865,0,1.648-0.522,1.988-1.309c1.516-3.554,14.882-34.952,14.882-43.278
			c0-3.497-1.081-6.761-2.922-9.466c1.213,0.168,2.432,0.332,3.681,0.337c6.339,0.042,12.071-2.347,16.496-6.702
			c4.419-4.361,6.887-10.188,6.929-16.403c0-0.092-0.042-0.168-0.053-0.253C114.639,59.682,118.204,55.463,118.235,50.437z
			 M23.92,50.226c0-3.515,2.855-6.373,6.373-6.373c3.515,0,6.37,2.858,6.37,6.373c0,3.515-2.855,6.371-6.37,6.371
			C26.775,56.591,23.92,53.735,23.92,50.226z M49.91,20.866L68.918,4.97l19.142,15.901c-7.366,1.118-14.006,4.53-19.137,9.498
			C63.827,25.431,57.238,22.005,49.91,20.866z M62.514,55.41c0.05-6.987,2.431-13.419,6.399-18.571
			c3.989,5.2,6.373,11.702,6.373,18.75c0,6.308-2.426,12.058-6.389,16.372C64.734,67.436,62.477,61.593,62.514,55.41z M68.918,130.1
			c-4.736-11.438-12.551-31.408-12.551-36.851c0-6.908,5.626-12.534,12.551-12.534s12.55,5.626,12.55,12.534
			C81.469,98.691,73.654,118.662,68.918,130.1z M107.536,56.733v2.154l0,0l-0.043-2.154c-1.692-0.011-3.29-0.686-4.492-1.901
			c-1.192-1.215-1.846-2.818-1.836-4.519c0.021-3.488,2.885-6.331,6.418-6.331c3.507,0.029,6.354,2.905,6.328,6.415
			C113.896,53.886,111.032,56.733,107.536,56.733z"/>
		<path d="M68.924,84.09c-4.211,0-7.657,3.417-7.678,7.619c-0.032,4.219,3.38,7.694,7.612,7.727c0.008,0,0.045,0,0.05,0
			c4.206,0,7.657-3.418,7.678-7.621C76.617,87.58,73.2,84.115,68.924,84.09z M68.913,95.121v2.152l-0.016-2.152
			c-1.849-0.016-3.338-1.529-3.328-3.38c0.01-1.846,1.519-3.327,3.375-3.327c1.848,0.016,3.338,1.529,3.328,3.38
			C72.262,93.618,70.753,95.121,68.913,95.121z"/>
	</g>
</svg>
